<svg xmlns="http://www.w3.org/2000/svg" viewBox="0 0 80.52 65.13"><defs><style>.cls-1{fill:#ef0f0f;}.cls-2{fill:#f97d0d;}.cls-3{fill:#fff;}</style></defs><g id="OBJECTS"><path class="cls-1" d="M64,34.82H62.39V22.62a8.62,8.62,0,1,0-17.24,0v12.2H43.58V22.62a10.19,10.19,0,0,1,20.38,0Z" transform="translate(-4.74 -12.44)"/><path class="cls-1" d="M77.88,33.48,67.64,64c-.9,2.71-4.09,4.44-6.65,5.8A59.54,59.54,0,0,1,51.11,74l-.63.2a61.47,61.47,0,0,1-14.82,2.65V67.41c.53-.14,1.07-.29,1.6-.47a33.4,33.4,0,0,0,5.08-2c.15-.09.67-.35,1.26-.68l2.28,4.6a2.66,2.66,0,0,0,2.4,1.5,2.7,2.7,0,0,0,2.64-2.19l5.31-27.85a2.67,2.67,0,0,0-2.64-3.19H53l-.52.23L35.66,44.77V31.31A4,4,0,0,1,39,29.55h6.18l12.63.06H64l7.9,0h3A2.88,2.88,0,0,1,77.88,33.48Z" transform="translate(-4.74 -12.44)"/><path class="cls-2" d="M71.86,29.7a3.36,3.36,0,0,1-.06.63L65.24,63.44c-.58,2.93-3.5,4.82-5.85,6.31a50.08,50.08,0,0,1-8.91,4.45l-.27.1a51.73,51.73,0,0,1-19.63,3.24c-9.68-.29-18.36-5.75-21.29-14.87a26.88,26.88,0,0,0,5.6,3.51,14.68,14.68,0,0,0,3,1.18l.11,0c.22.08.46.14.68.2a28.21,28.21,0,0,0,7.83,1.09h0a34.71,34.71,0,0,0,9.13-1.28c.53-.14,1.07-.29,1.6-.47a33.4,33.4,0,0,0,5.08-2c.15-.09.67-.35,1.26-.68l2.28,4.6a2.66,2.66,0,0,0,2.4,1.5,2.7,2.7,0,0,0,2.64-2.19l5.31-27.85a2.67,2.67,0,0,0-2.64-3.19H53l-.52.23L35.66,44.77l-5.45,2.39c0-4.79-.16-13.49-.18-15.42,0-.89,0-1.8,0-2.69a3.4,3.4,0,0,1,3.34-2.78H68.46A3.4,3.4,0,0,1,71.86,29.7Z" transform="translate(-4.74 -12.44)"/><path class="cls-1" d="M53.63,39.81,48.32,67.67a0,0,0,0,1,0,0,.05.05,0,0,1,0,0l-3.6-7.28c.12.25-3.21,2-3.49,2.16a32.28,32.28,0,0,1-4.69,1.87l-.8.24A32.51,32.51,0,0,1,26.85,66h-.36a25.83,25.83,0,0,1-7.1-1C13.27,63.3,7.33,58.68,4.74,52.73A5.36,5.36,0,0,0,5.88,54a18.89,18.89,0,0,0,3.45,2.64,21.07,21.07,0,0,0,10.89,2.75c.83,0,1.67,0,2.49-.11a25.81,25.81,0,0,0,7.1-1.79,24.1,24.1,0,0,0,4.11-2.12A13.33,13.33,0,0,0,35.66,54a7.15,7.15,0,0,0,.91-1l-.91-.1-5.5-.56-4-.41a0,0,0,0,1,0-.09l4.08-1.8,5.46-2.4,17.92-7.88h0S53.64,39.78,53.63,39.81Z" transform="translate(-4.74 -12.44)"/><path class="cls-1" d="M41.77,35.53a2,2,0,1,1-2-2A2,2,0,0,1,41.77,35.53Z" transform="translate(-4.74 -12.44)"/><path class="cls-3" d="M40.54,33.26a2.27,2.27,0,0,0-1.57,0,2.42,2.42,0,1,0,1.57,0Zm-.78,3.89a1.62,1.62,0,0,1-.79-3,1.63,1.63,0,0,1,2.41,1.42A1.63,1.63,0,0,1,39.76,37.15Z" transform="translate(-4.74 -12.44)"/><path class="cls-1" d="M60.58,35.53a2,2,0,1,1-2-2A2,2,0,0,1,60.58,35.53Z" transform="translate(-4.74 -12.44)"/><path class="cls-3" d="M59.35,33.26a2.27,2.27,0,0,0-1.57,0,2.39,2.39,0,0,0-1.63,2.27,2.41,2.41,0,1,0,4.82,0A2.38,2.38,0,0,0,59.35,33.26Zm-.79,3.89a1.62,1.62,0,0,1-.78-3,1.57,1.57,0,0,1,1.57,0,1.62,1.62,0,0,1-.79,3Z" transform="translate(-4.74 -12.44)"/><path class="cls-1" d="M59.35,35.53H57.78V23.33a8.62,8.62,0,0,0-17.24,0v12.2H39V23.33a10.19,10.19,0,0,1,20.38,0Z" transform="translate(-4.74 -12.44)"/><path class="cls-1" d="M71.36,21.88s9.49,1.86,9.88,12.85-7,18.79-7,18.79,11.56-8.71,11-22.26S71.36,21.88,71.36,21.88Z" transform="translate(-4.74 -12.44)"/></g></svg>